<svg xmlns="http://www.w3.org/2000/svg" viewBox="0 0 359.6 341.47"><defs><style>.cls-1{fill:#231f20;}.cls-2{fill:none;}</style></defs><title>DoubtfulBook_1</title><g id="Layer_2" data-name="Layer 2"><g id="Layer_1-2" data-name="Layer 1"><path class="cls-1" d="M179.86,341.46h-.11v0h.11Z"/><line class="cls-2" x1="335.31" y1="294.9" x2="335.31" y2="294.9"/><path class="cls-1" d="M356.87,297.14l-.49-3.82-.16-1.13L337.85,155.54v0l-1-5-10.32,1.34L322.42,119l-7.08,6.2c-16.42,14.36-46.43,7.86-46.72,7.79l-.18,0c-1.26-.23-29.16-5.35-56.14-.06v-5.34h45.34a5,5,0,0,0,5-5V66.87a4.91,4.91,0,0,0-.09-.94,3.68,3.68,0,0,0-.14-.55,3.42,3.42,0,0,0-.2-.53,3.62,3.62,0,0,0-.26-.52,4.36,4.36,0,0,0-.32-.48l-.13-.17-16.7-22.1a5,5,0,0,0-4-2H212.3V16.41a4.46,4.46,0,0,0,0-.51,1.85,1.85,0,0,0-.05-.34,2.44,2.44,0,0,0,0-.29s0-.05,0-.08a3.4,3.4,0,0,0-.17-.54,2.68,2.68,0,0,0-.2-.46c0-.06-.06-.11-.08-.16l-6-11.35A5,5,0,0,0,201.31,0H157.63a5,5,0,0,0-4.42,2.68l-6,11.35c0,.05,0,.1-.08.16a2.64,2.64,0,0,0-.2.46,3.35,3.35,0,0,0-.17.54s0,0,0,.08a.58.58,0,0,0,0,.14.4.4,0,0,0,0,.15.51.51,0,0,0,0,.17,1,1,0,0,0,0,.17,4.36,4.36,0,0,0,0,.51V39.59H118.13a5,5,0,0,0-4,2L97.31,63.84a3.43,3.43,0,0,0-.31.47l-.13.23a4.12,4.12,0,0,0-.32.75,2.39,2.39,0,0,0-.07.25,1,1,0,0,0-.06.24.25.25,0,0,0,0,.07.11.11,0,0,0,0,0s0,0,0,0a2.85,2.85,0,0,0,0,.31.75.75,0,0,0,0,.21c0,.12,0,.24,0,.36v55.7a5,5,0,0,0,5,5h45.34v5.18c-26.73-5-54.07,0-55.3.22l-.17,0c-.31.07-30.31,6.57-46.73-7.79L37.35,119l-4.11,32.92-10.81-1.4-.66,5,0,.18v0l-.17,1.24L3.38,292.19,0,318.2l5,.64C154.94,338.28,176,341,179.2,341.4l.55.05h.38l.28,0h.05L359.6,318.2ZM328.56,161.69h0l1.86,13.82,15.19,113-5.33.69v-26.8L327.77,161.79Zm-62-19c2.26.5,28.4,5.9,48.17-5l1.92,15.41.62,4.94L330,260.28c-19,14.16-50.52,7.31-50.85,7.23l-.17,0a197.59,197.59,0,0,0-38.65-2.64c-23.35.71-41.9,5.65-55.34,14.72V228.21H207.3a5,5,0,0,0,5-5V143.08C237.33,137.65,264.95,142.45,266.52,142.74Zm63.79,129.18v18.59L184.8,309.37v-17c28.51-26.22,89.83-15.56,92.26-15.13S308.36,283.83,330.31,271.92ZM212.3,49.59h26l9.28,12.27H212.3ZM160.65,10h37.64l.74,1.41H159.91Zm-40,39.59h26V61.86h-35.3ZM106.3,117.52V71.86h45.34a5,5,0,0,0,5-5V21.41H202.3V66.86a5,5,0,0,0,5,5h45.34v45.66H207.3a5,5,0,0,0-5,5v95.69H156.64V122.52a5,5,0,0,0-5-5Zm46.56,16.55h0l0,0Zm-110.32,24,.62-4.93,1.93-15.44c19.77,10.9,45.93,5.49,48.17,5,1.58-.29,28.55-5,53.38.16v80.31a5,5,0,0,0,5,5H175v51.48c-13.45-9.15-32.07-14.14-55.54-14.85a196.65,196.65,0,0,0-38.64,2.64l-.18,0c-.33.08-31.85,7-50.85-7.23ZM174.8,292.23v17.14L29.49,290.54V271.92c22,11.91,50.85,5.9,53.25,5.37S146.17,266.21,174.8,292.23ZM29.16,175.51,31,161.68l.57-4.18L31,161.69l1,.12-12.48,100,0,.31v27.13L14,288.53ZM179.8,331.42,11.21,309.57l1.44-11.14L179.16,320l.64.08,150.51-19.51,5.64-.73,11-1.43,1.44,11.14Z"/><polygon class="cls-1" points="31.59 157.5 31.04 161.69 31.02 161.68 31.59 157.5"/><polygon class="cls-1" points="21.77 155.45 21.75 155.63 21.75 155.64 21.74 155.64 21.77 155.45"/><path class="cls-2" d="M24.49,262.42h0"/><line class="cls-2" x1="335.31" y1="294.9" x2="335.31" y2="294.9"/><rect class="cls-1" x="21.74" y="155.64" width="0.01" height="0.02"/><polygon class="cls-1" points="21.75 155.66 21.58 156.9 21.74 155.66 21.75 155.66"/><polygon class="cls-1" points="31.59 157.5 31.04 161.69 29.25 175.52 29.16 175.51 31.02 161.68 31.59 157.5"/><polygon class="cls-1" points="330.45 175.51 330.35 175.52 328.56 161.69 328.59 161.69 330.45 175.51"/><path class="cls-1" d="M152.86,134.07h0l0,0Z"/><path class="cls-1" d="M356.38,293.32l.49,3.82h0Z"/><path class="cls-1" d="M146.77,15.27a.58.58,0,0,0,0,.14s0-.08,0-.11A0,0,0,0,0,146.77,15.27Z"/><path class="cls-1" d="M152.86,134.07h0l0,0Z"/><path class="cls-1" d="M146.77,15.27a.58.58,0,0,0,0,.14.4.4,0,0,0,0,.15,2.4,2.4,0,0,1,0-.26A0,0,0,0,0,146.77,15.27Z"/></g></g></svg>