<svg xmlns="http://www.w3.org/2000/svg" viewBox="0 0 400 400"><defs><style>.cls-1{fill:#f68b58;}</style></defs><title>wave</title><g id="Layer_2" data-name="Layer 2"><g id="Layer_1-2" data-name="Layer 1"><path class="cls-1" d="M249.7,140.51l-1.58-1.26c-33.11,38-66.23,81.16-99.34,119l.05,0c33.11-37.85,66.22-81.05,99.34-119Z"/><path class="cls-1" d="M260.15,149c-33.11,37.48-66.23,80.65-99.34,118.89l3.1,2.46C197,232,230.14,188.86,263.25,151.52Z"/><path class="cls-1" d="M272.18,159c-33.11,36.87-66.22,79.92-99.34,118.42l3.1,2.47c33.11-38.55,66.23-81.56,99.34-118.24Z"/><path class="cls-1" d="M284.2,169.37c-33.11,36.11-66.23,79-99.34,117.62l3.1,2.5c33.11-38.69,66.22-81.47,99.34-117.36Z"/><path class="cls-1" d="M296.23,180.26C263.12,215.47,230,258,196.9,296.77l3.1,2.57c33.11-38.74,66.23-81.22,99.34-116.17Z"/><path class="cls-1" d="M308.26,191.74C275.15,225.9,242,268.12,208.93,306.85l3.1,2.66c33.11-38.72,66.23-80.83,99.34-114.7Z"/><path class="cls-1" d="M320.29,203.87c-33.11,33-66.22,74.77-99.34,113.45l3.1,2.78c33.11-38.65,66.23-80.34,99.34-113Z"/><path class="cls-1" d="M332.32,216.7c-33.11,31.63-66.23,73-99.34,111.56l3.1,2.91c33.11-38.56,66.23-79.78,99.34-111Z"/><path class="cls-1" d="M344.35,230.24c-33.11,30.15-66.23,71-99.34,109.5l3.1,3.06c33.11-38.47,66.23-79.2,99.34-108.95Z"/><path class="cls-1" d="M356.38,244.48C323.27,273,290.16,313.37,257,351.8l3.1,3.2c33.11-38.41,66.23-78.63,99.34-106.74Z"/><path class="cls-1" d="M368.41,259.36C335.3,286.18,302.18,326,269.07,364.43l3.1,3.35c33.11-38.41,66.23-78.13,99.34-104.48Z"/><path class="cls-1" d="M380.44,274.79c-33.11,25-66.23,64.35-99.34,102.81l3.1,3.48c33.11-38.5,66.22-77.76,99.34-102.24Z"/><path class="cls-1" d="M293.13,391.26l3.1,3.59c33.11-38.71,66.23-77.56,99.34-100.09l-3.11-4.13C359.36,313.67,326.24,352.61,293.13,391.26Z"/><path class="cls-1" d="M400,309.66c-30.11,20.5-60.23,54.95-90.34,90.34h6.21c28-33,56.09-64.57,84.13-84.13Z"/><path class="cls-1" d="M400,333.72c-22.1,16.56-44.19,40.48-66.28,66.28h6.21c20-23.26,40-44.68,60.07-60.07Z"/><path class="cls-1" d="M400,357.78C385.93,369.45,371.85,384,357.78,400H364c12-13.46,24-25.78,36-36Z"/><path class="cls-1" d="M381.83,400H388q6-6.27,12-12v-6.21C393.95,387.42,387.89,393.52,381.83,400Z"/><path class="cls-1" d="M12.06,0Q6,6.33,0,12.06v6.21C6.09,12.66,12.18,6.52,18.27,0Z"/><path class="cls-1" d="M36.12,0C24.08,13.5,12,25.86,0,36.12v6.21C14.11,30.63,28.22,16,42.33,0Z"/><path class="cls-1" d="M60.18,0C40.12,23.31,20.06,44.76,0,60.18v6.21C22.13,49.81,44.26,25.84,66.39,0Z"/><path class="cls-1" d="M84.24,0C56.16,33,28.08,64.66,0,84.24v6.21C30.15,69.93,60.3,35.43,90.45,0Z"/><path class="cls-1" d="M103.82,5.22C70.7,43.92,37.59,82.78,4.48,105.31l3.1,4.13c33.11-23,66.23-62,99.34-100.64Z"/><path class="cls-1" d="M115.85,19C82.73,57.47,49.62,96.73,16.51,121.22l3.1,4.05c33.11-25,66.23-64.36,99.34-102.82Z"/><path class="cls-1" d="M127.88,32.28C94.76,70.69,61.65,110.41,28.54,136.77l3.1,3.93C64.75,113.88,97.87,74,131,35.63Z"/><path class="cls-1" d="M139.9,45.05C106.79,83.46,73.68,123.68,40.57,151.8l3.1,3.78C76.78,127,109.9,86.68,143,48.26Z"/><path class="cls-1" d="M151.93,57.25c-33.11,38.47-66.23,79.2-99.34,109l3.1,3.61c33.11-30.16,66.22-71,99.34-109.51Z"/><path class="cls-1" d="M164,68.88c-33.11,38.56-66.22,79.79-99.34,111.06l3.1,3.43c33.11-31.64,66.22-73,99.34-111.57Z"/><path class="cls-1" d="M176,80c-33.11,38.65-66.22,80.34-99.34,113l3.1,3.24c33.11-33,66.23-74.78,99.34-113.45Z"/><path class="cls-1" d="M188,90.54c-33.11,38.72-66.23,80.83-99.34,114.71l3.1,3.07C124.9,174.14,158,131.93,191.13,93.2Z"/><path class="cls-1" d="M200.05,100.71c-33.11,38.74-66.22,81.22-99.34,116.18l3.1,2.9C136.93,184.57,170,142,203.16,103.27Z"/><path class="cls-1" d="M212.08,110.55C179,149.24,145.86,192,112.74,227.92l3.1,2.76c33.11-36.12,66.22-79,99.34-117.63Z"/><path class="cls-1" d="M224.11,120.18c-33.11,38.55-66.23,81.56-99.34,118.25l3.1,2.64C161,204.2,194.1,161.15,227.21,122.65Z"/><path class="cls-1" d="M236.14,129.72C203,168,169.91,211.18,136.8,248.52l3.1,2.55c33.11-37.48,66.23-80.65,99.34-118.89Z"/><path class="cls-1" d="M249.7,140.51l1.53,1.23c-33.11,37.85-66.22,81.05-99.34,119l.05,0c33.11-38,66.23-81.17,99.34-119Z"/><path class="cls-1" d="M249.7,140.51l-1.53-1.22c-33.11,38-66.22,81.16-99.34,119l3.05,2.45c33.11-38,66.23-81.16,99.34-119Z"/><path class="cls-1" d="M148.83,258.31l-.05,0C99.18,270.08,49.59,275.42,0,258.37v.06C49.61,275.48,99.22,270.13,148.83,258.31Z"/><path class="cls-1" d="M160.8,267.86C107.2,281.24,53.6,288.68,0,271.23v3.32c54.64,17.49,109.27,9.51,163.91-4.23Z"/><path class="cls-1" d="M172.83,277.4C115.22,292,57.61,301.58,0,284.09v3.32c58.65,17.44,117.29,7.37,175.94-7.55Z"/><path class="cls-1" d="M184.86,287c-61.62,15.57-123.24,27.1-184.86,10v3.32c62.66,17,125.31,5,188-10.77Z"/><path class="cls-1" d="M196.89,296.77c-65.63,16.09-131.26,29.4-196.89,13v3.32c66.67,16.09,133.33,2.38,200-13.78Z"/><path class="cls-1" d="M208.92,306.85C139.28,323.05,69.64,337.77,0,322.67V326c70.68,14.7,141.35-.31,212-16.47Z"/><path class="cls-1" d="M221,317.32C147.3,333.23,73.65,348.86,0,335.52v3.32c74.69,12.79,149.37-3,224.05-18.75Z"/><path class="cls-1" d="M233,328.27C155.32,343.53,77.66,359.4,0,348.38v3.32c78.69,10.32,157.39-5.49,236.08-20.53Z"/><path class="cls-1" d="M245,339.75C163.34,354.06,81.67,369.34,0,361.24v3.32c82.7,7.25,165.41-7.72,248.11-21.76Z"/><path class="cls-1" d="M257,351.8C171.36,365,85.68,378.66,0,374.1v3.32C86.71,381,173.43,367.9,260.14,355Z"/><path class="cls-1" d="M269.07,364.43C179.38,376.48,89.69,387.31,0,387v3.32c90.72-.84,181.45-10.72,272.17-22.5Z"/><path class="cls-1" d="M281.1,377.61C187.4,388.7,93.7,395.26,0,399.82V400H45.49c79.57-3.77,159.14-10.41,238.71-18.91Z"/><path class="cls-1" d="M293.13,391.26c-36.41,3.16-72.82,6.36-109.23,8.74H232c21.4-1.57,42.8-3.37,64.19-5.15Z"/><path class="cls-1" d="M4.48,105.31q-2.24-.57-4.48-1.19v3.32q3.79,1.08,7.58,2Z"/><path class="cls-1" d="M16.51,121.22Q8.26,119.48,0,117v3.32a196.31,196.31,0,0,0,19.61,5Z"/><path class="cls-1" d="M28.54,136.77A193.06,193.06,0,0,1,0,129.84v3.32a192.11,192.11,0,0,0,31.64,7.54Z"/><path class="cls-1" d="M40.56,151.8A190.21,190.21,0,0,1,0,142.7V146a189.78,189.78,0,0,0,43.67,9.56Z"/><path class="cls-1" d="M52.59,166.21A189.15,189.15,0,0,1,0,155.56v3.32a189.17,189.17,0,0,0,55.7,10.94Z"/><path class="cls-1" d="M64.62,179.93A189.9,189.9,0,0,1,0,168.42v3.32c22.58,8.4,45.15,11.68,67.73,11.62Z"/><path class="cls-1" d="M76.65,192.94c-25.55,1-51.1-2-76.65-11.67v3.32c26.58,10.06,53.17,13,79.76,11.59Z"/><path class="cls-1" d="M88.68,205.25c-29.56,2.53-59.12.14-88.68-11.11v3.32c30.59,11.66,61.19,13.82,91.79,10.86Z"/><path class="cls-1" d="M100.71,216.89C67.14,221.17,33.57,219.77,0,207v3.32c34.6,13.15,69.21,14.24,103.81,9.48Z"/><path class="cls-1" d="M112.74,227.92C75.16,234.11,37.58,234,0,219.85v3.32c38.61,14.49,77.23,14.2,115.84,7.51Z"/><path class="cls-1" d="M124.77,238.43C83.18,246.57,41.59,248.08,0,232.71V236c42.63,15.64,85.25,13.68,127.87,5Z"/><path class="cls-1" d="M136.8,248.52c-45.6,10-91.2,13.39-136.8-3v3.32c46.63,16.55,93.27,12.71,139.9,2.18Z"/><path class="cls-1" d="M148.83,258.31h0l3.05,2.45C101.25,273,50.63,278.87,0,261.69v.06c50.64,17.18,101.29,11.3,151.93-1Z"/><path class="cls-1" d="M0,261.69c50.63,17.18,101.25,11.31,151.88-.94l-3.05-2.45C99.22,270.13,49.61,275.48,0,258.43Z"/><path class="cls-1" d="M248.18,139.28C298.79,115.89,349.39,101.54,400,105v-.07c-50.62-3.46-101.25,10.89-151.87,34.31Z"/><path class="cls-1" d="M263.26,151.52c45.58-20,91.16-31.76,136.74-27.08v-4c-46.61-4.49-93.23,7.8-139.84,28.53Z"/><path class="cls-1" d="M275.29,161.61c41.57-17.23,83.14-26.85,124.71-21.67v-4c-42.6-5.09-85.21,5.07-127.81,23Z"/><path class="cls-1" d="M287.32,172.12c37.56-14.43,75.12-22,112.68-16.68v-4c-38.59-5.31-77.19,2.78-115.78,17.92Z"/><path class="cls-1" d="M299.35,183.16c33.55-11.69,67.1-17.36,100.65-12.21v-4c-34.58-5.22-69.17.93-103.75,13.31Z"/><path class="cls-1" d="M311.38,194.8c29.54-9.1,59.08-13.09,88.62-8.35v-4c-30.57-4.86-61.15-.46-91.72,9.29Z"/><path class="cls-1" d="M323.41,207.11c25.53-6.73,51.06-9.29,76.59-5.16v-4c-26.56-4.3-53.13-1.4-79.69,5.92Z"/><path class="cls-1" d="M335.44,220.12c21.52-4.64,43-6.08,64.56-2.67v-4c-22.55-3.6-45.11-1.9-67.67,3.25Z"/><path class="cls-1" d="M347.47,233.85c17.51-2.9,35-3.51,52.53-.9v-4c-18.54-2.82-37.09-2-55.63,1.29Z"/><path class="cls-1" d="M359.5,248.26a163.19,163.19,0,0,1,40.5.19v-4a164.26,164.26,0,0,0-43.61,0Z"/><path class="cls-1" d="M371.53,263.29A160,160,0,0,1,400,264v-4a160.65,160.65,0,0,0-31.58-.59Z"/><path class="cls-1" d="M383.56,278.84a158.19,158.19,0,0,1,16.44.61v-4a158.58,158.58,0,0,0-19.55-.67Z"/><path class="cls-1" d="M395.59,294.75q2.21.07,4.41.2v-4q-3.76-.26-7.52-.33Z"/><path class="cls-1" d="M106.93,8.8c8.76-3,17.51-5.94,26.27-8.8H119.34q-7.76,2.58-15.51,5.21Z"/><path class="cls-1" d="M119,22.45C141.6,14.51,164.25,6.71,186.9,0H173C154,5.82,134.92,12.35,115.85,19Z"/><path class="cls-1" d="M131,35.63C167.53,22.17,204.06,9.46,240.6,0H226.74c-33,8.84-65.91,20.32-98.86,32.28Z"/><path class="cls-1" d="M143,48.25C193.45,28.45,243.88,11.53,294.31,0H280.45C233.6,11,186.76,27,139.91,45Z"/><path class="cls-1" d="M155,60.3C219.37,33,283.69,14,348,0H334.15A1065.1,1065.1,0,0,0,151.94,57.25Z"/><path class="cls-1" d="M167.08,71.78c38.82-16.36,77.64-31.7,116.46-42.49C322.36,18,361.18,11.27,400,.5V0H387.86c-37.31,9.94-74.63,16.93-111.94,28C238.6,38.62,201.29,53.33,164,68.87Z"/><path class="cls-1" d="M179.1,82.73c36.82-16.12,73.63-31.12,110.45-41.62C326.37,30.22,363.18,23.81,400,16V12c-37.33,8.54-74.67,15-112,26.05-37.33,10.6-74.67,25.7-112,41.9Z"/><path class="cls-1" d="M191.14,93.19C260.76,59.91,330.38,40.27,400,31.5v-4c-35.33,5.91-70.66,11.95-106,22.42-35.33,10.16-70.66,24.77-106,40.61Z"/><path class="cls-1" d="M203.17,103.27C268.78,71.61,334.39,52,400,47V43c-66.65,5.94-133.29,25.6-199.94,57.7Z"/><path class="cls-1" d="M215.2,113C276.8,83.26,338.4,64.46,400,62.5v-4c-62.64,2.69-125.27,21.75-187.91,52Z"/><path class="cls-1" d="M227.22,122.64C284.82,95,342.41,77.5,400,78V74c-58.63.08-117.25,17.95-175.88,46.18Z"/><path class="cls-1" d="M239.25,132.18C292.84,106.89,346.42,91.1,400,93.5v-4c-54.62-2-109.23,14.29-163.85,40.21Z"/><path class="cls-1" d="M251.23,141.73l-3.05-2.45h0l3.1,2.49C300.86,119.05,350.43,105.23,400,109v-.07C350.41,105.17,300.82,119,251.23,141.73Z"/><path class="cls-1" d="M400,108.94V105c-50.61-3.47-101.21,10.88-151.82,34.28l3.05,2.45C300.82,119,350.41,105.17,400,108.94Z"/></g></g></svg>